<svg width="512" height="512" viewBox="0 0 512 512" fill="none" xmlns="http://www.w3.org/2000/svg" role="img" aria-label="Smart Menu">
  <defs>
    <linearGradient id="brandGradient" x1="40" y1="24" x2="472" y2="488" gradientUnits="userSpaceOnUse">
      <stop stop-color="#ff6b81"/>
      <stop offset="1" stop-color="#d1284a"/>
    </linearGradient>
  </defs>

  <rect width="512" height="512" rx="116" fill="url(#brandGradient)"/>

  <!-- Finder patterns -->
  <g fill="none" stroke="#ffffff" stroke-width="18">
    <rect x="105" y="105" width="90" height="90" rx="22"/>
    <rect x="317" y="105" width="90" height="90" rx="22"/>
    <rect x="105" y="317" width="90" height="90" rx="22"/>
  </g>
  <g fill="#ffffff">
    <rect x="132" y="132" width="36" height="36" rx="10"/>
    <rect x="344" y="132" width="36" height="36" rx="10"/>
    <rect x="132" y="344" width="36" height="36" rx="10"/>

    <!-- Timing dots -->
    <rect x="236" y="140" width="30" height="30" rx="9"/>
    <rect x="280" y="140" width="30" height="30" rx="9"/>
    <rect x="140" y="236" width="30" height="30" rx="9"/>
    <rect x="140" y="280" width="30" height="30" rx="9"/>

    <!-- Data modules -->
    <rect x="236" y="236" width="30" height="30" rx="9"/>
    <rect x="324" y="236" width="30" height="30" rx="9"/>
    <rect x="368" y="236" width="30" height="30" rx="9"/>
    <rect x="280" y="280" width="30" height="30" rx="9"/>
    <rect x="324" y="280" width="30" height="30" rx="9"/>
    <rect x="236" y="324" width="30" height="30" rx="9"/>
    <rect x="280" y="324" width="30" height="30" rx="9"/>
    <rect x="368" y="324" width="30" height="30" rx="9"/>
    <rect x="280" y="368" width="30" height="30" rx="9"/>
    <rect x="324" y="368" width="30" height="30" rx="9"/>
    <rect x="368" y="368" width="30" height="30" rx="9"/>
  </g>
</svg>
